<svg width="16" height="16" viewBox="0 0 16 16" fill="none" xmlns="http://www.w3.org/2000/svg">
<path d="M8 3.66663C8.08841 3.66663 8.17319 3.70174 8.23571 3.76426C8.29822 3.82677 8.33334 3.91155 8.33334 3.99996V11.1953L11.0973 8.43063C11.1599 8.36803 11.2448 8.33287 11.3333 8.33287C11.4219 8.33287 11.5067 8.36803 11.5693 8.43063C11.6319 8.49322 11.6671 8.57811 11.6671 8.66663C11.6671 8.75514 11.6319 8.84003 11.5693 8.90263L8.236 12.236C8.20504 12.267 8.16826 12.2916 8.12776 12.3084C8.08726 12.3252 8.04385 12.3339 8 12.3339C7.95616 12.3339 7.91275 12.3252 7.87225 12.3084C7.83175 12.2916 7.79497 12.267 7.764 12.236L4.43067 8.90263C4.36808 8.84003 4.33292 8.75514 4.33292 8.66663C4.33292 8.57811 4.36808 8.49322 4.43067 8.43063C4.49326 8.36803 4.57815 8.33287 4.66667 8.33287C4.75519 8.33287 4.84008 8.36803 4.90267 8.43063L7.66667 11.1953V3.99996C7.66667 3.91155 7.70179 3.82677 7.7643 3.76426C7.82681 3.70174 7.9116 3.66663 8 3.66663Z" fill="#0F0F0F"/>
</svg>
