<svg width="11" height="13" viewBox="0 0 11 13" fill="none" xmlns="http://www.w3.org/2000/svg">
<path d="M5.50063 0C5.63324 0 5.76042 0.0526785 5.85419 0.146447C5.94795 0.240215 6.00063 0.367392 6.00063 0.5V11.293L10.1466 7.146C10.2405 7.05211 10.3679 6.99937 10.5006 6.99937C10.6334 6.99937 10.7607 7.05211 10.8546 7.146C10.9485 7.23989 11.0013 7.36722 11.0013 7.5C11.0013 7.63278 10.9485 7.76011 10.8546 7.854L5.85463 12.854C5.80819 12.9006 5.75301 12.9375 5.69227 12.9627C5.63152 12.9879 5.5664 13.0009 5.50063 13.0009C5.43486 13.0009 5.36974 12.9879 5.309 12.9627C5.24825 12.9375 5.19308 12.9006 5.14663 12.854L0.146632 7.854C0.0527451 7.76011 -3.42689e-09 7.63278 0 7.5C3.42688e-09 7.36722 0.0527451 7.23989 0.146632 7.146C0.240518 7.05211 0.367856 6.99937 0.500632 6.99937C0.633408 6.99937 0.760745 7.05211 0.854632 7.146L5.00063 11.293V0.5C5.00063 0.367392 5.05331 0.240215 5.14708 0.146447C5.24085 0.0526785 5.36802 0 5.50063 0Z" fill="black"/>
</svg>
