<svg width="24" height="24" viewBox="0 0 24 24" fill="none" xmlns="http://www.w3.org/2000/svg">
<path d="M10.5034 12C11.1998 11.9999 11.8893 12.1384 12.5317 12.4074C13.1741 12.6764 13.7566 13.0705 14.2452 13.5668C14.7338 14.063 15.1188 14.6516 15.3777 15.2981C15.6366 15.9446 15.7643 16.6362 15.7534 17.3325C15.7516 17.4478 15.7765 17.562 15.826 17.6661C15.8755 17.7702 15.9484 17.8615 16.0389 17.9329C16.1295 18.0043 16.2353 18.0539 16.3481 18.0777C16.4609 18.1016 16.5777 18.0991 16.6894 18.0705C17.022 17.9853 17.3697 17.9772 17.7059 18.0468C18.0421 18.1164 18.358 18.2618 18.6294 18.4721C18.9009 18.6823 19.1207 18.9518 19.2722 19.2599C19.4236 19.568 19.5027 19.9067 19.5034 20.25C19.5034 20.8467 19.2663 21.419 18.8444 21.841C18.4224 22.263 17.8501 22.5 17.2534 22.5H4.5034C4.10456 22.4978 3.71016 22.416 3.34329 22.2595C2.97642 22.103 2.64444 21.8749 2.36676 21.5886C2.08908 21.3023 1.87129 20.9635 1.72612 20.592C1.58095 20.2205 1.51131 19.8238 1.52128 19.425C1.53126 19.0263 1.62064 18.6336 1.7842 18.2698C1.94777 17.906 2.18223 17.5785 2.47387 17.3064C2.76551 17.0344 3.10848 16.8232 3.48272 16.6852C3.85695 16.5473 4.25494 16.4853 4.6534 16.503C4.82624 16.5119 4.99683 16.4608 5.13626 16.3582C5.27568 16.2557 5.37537 16.1081 5.4184 15.9405C5.70935 14.813 6.3667 13.8141 7.28714 13.1008C8.20759 12.3875 9.33894 12.0003 10.5034 12ZM17.2129 16.5C17.0441 14.9792 16.3637 13.5609 15.2831 12.4776C14.2025 11.3942 12.7859 10.7102 11.2655 10.5376C9.74517 10.365 8.21128 10.714 6.91533 11.5275C5.61939 12.3411 4.63829 13.5708 4.1329 15.015C2.97481 15.1098 1.89828 15.6489 1.12865 16.5194C0.359016 17.3899 -0.0440488 18.5244 0.00382452 19.6854C0.0516978 20.8464 0.546798 21.9438 1.38549 22.7481C2.22418 23.5523 3.34144 24.0009 4.5034 24H17.2534C18.248 24 19.2018 23.6049 19.9051 22.9017C20.6083 22.1984 21.0034 21.2446 21.0034 20.25C21.0034 19.2555 20.6083 18.3016 19.9051 17.5984C19.2018 16.8951 18.248 16.5 17.2534 16.5H17.2129Z" fill="black"/>
<path d="M15.7535 2.25C15.7535 2.05109 15.6745 1.86032 15.5338 1.71967C15.3932 1.57902 15.2024 1.5 15.0035 1.5C14.8046 1.5 14.6138 1.57902 14.4732 1.71967C14.3325 1.86032 14.2535 2.05109 14.2535 2.25V3.75C14.2535 3.94891 14.3325 4.13968 14.4732 4.28033C14.6138 4.42098 14.8046 4.5 15.0035 4.5C15.2024 4.5 15.3932 4.42098 15.5338 4.28033C15.6745 4.13968 15.7535 3.94891 15.7535 3.75V2.25ZM21.368 5.196C21.4396 5.12681 21.4968 5.04406 21.5361 4.95255C21.5754 4.86105 21.5961 4.76264 21.5969 4.66305C21.5978 4.56347 21.5788 4.46471 21.5411 4.37253C21.5034 4.28036 21.4477 4.19662 21.3773 4.1262C21.3069 4.05578 21.2231 4.00009 21.131 3.96238C21.0388 3.92467 20.94 3.9057 20.8405 3.90656C20.7409 3.90743 20.6425 3.92812 20.5509 3.96742C20.4594 4.00673 20.3767 4.06387 20.3075 4.1355L19.2455 5.196C19.1047 5.33683 19.0256 5.52784 19.0256 5.727C19.0256 5.92616 19.1047 6.11717 19.2455 6.258C19.3863 6.39883 19.5773 6.47795 19.7765 6.47795C19.9757 6.47795 20.1667 6.39883 20.3075 6.258L21.368 5.196ZM9.6995 4.1355C9.55805 3.99888 9.3686 3.92329 9.17195 3.92499C8.9753 3.9267 8.78719 4.00558 8.64814 4.14464C8.50908 4.28369 8.4302 4.4718 8.4285 4.66845C8.42679 4.8651 8.50238 5.05455 8.639 5.196L9.6995 6.258C9.76923 6.32773 9.85202 6.38305 9.94313 6.42078C10.0342 6.45852 10.1319 6.47795 10.2305 6.47795C10.3291 6.47795 10.4268 6.45852 10.5179 6.42078C10.609 6.38305 10.6918 6.32773 10.7615 6.258C10.8312 6.18827 10.8865 6.10548 10.9243 6.01438C10.962 5.92327 10.9814 5.82562 10.9814 5.727C10.9814 5.62838 10.962 5.53073 10.9243 5.43963C10.8865 5.34852 10.8312 5.26573 10.7615 5.196L9.6995 4.1355ZM12.3005 9.1965C12.4869 8.81016 12.754 8.46829 13.0838 8.19396C13.4136 7.91963 13.7984 7.71921 14.2122 7.60622C14.626 7.49324 15.0593 7.47031 15.4827 7.539C15.9062 7.60768 16.3099 7.76638 16.6668 8.00438C17.0237 8.24238 17.3254 8.55415 17.5516 8.91866C17.7777 9.28317 17.9231 9.69194 17.9778 10.1174C18.0326 10.5429 17.9955 10.9751 17.869 11.385C17.7424 11.7949 17.5295 12.1729 17.2445 12.4935C17.543 12.915 17.8025 13.3665 18.0185 13.8405C18.5268 13.3812 18.9236 12.8119 19.1785 12.176C19.4335 11.5401 19.5398 10.8544 19.4895 10.1711C19.4392 9.48784 19.2335 8.82509 18.8882 8.23338C18.5429 7.64166 18.067 7.13661 17.4969 6.75672C16.9268 6.37683 16.2774 6.13213 15.5984 6.04128C14.9193 5.95043 14.2285 6.01583 13.5786 6.23249C12.9286 6.44915 12.3367 6.81136 11.848 7.29149C11.3593 7.77162 10.9866 8.357 10.7585 9.003C11.2865 9.0195 11.8025 9.0855 12.3005 9.1965ZM19.0265 15.3075C19.9265 15.63 20.714 16.1925 21.3095 16.9155C21.3912 16.8494 21.458 16.7668 21.5057 16.6732C21.5534 16.5796 21.5809 16.477 21.5865 16.372C21.592 16.2671 21.5754 16.1622 21.5377 16.064C21.5001 15.9659 21.4423 15.8768 21.368 15.8025L20.3075 14.742C20.2006 14.6344 20.0636 14.5618 19.9145 14.5337C19.7655 14.5056 19.6115 14.5234 19.4727 14.5846C19.334 14.6459 19.2171 14.7478 19.1374 14.8768C19.0577 15.0059 19.0191 15.156 19.0265 15.3075ZM21.7535 9.75C21.5546 9.75 21.3638 9.82902 21.2232 9.96967C21.0825 10.1103 21.0035 10.3011 21.0035 10.5C21.0035 10.6989 21.0825 10.8897 21.2232 11.0303C21.3638 11.171 21.5546 11.25 21.7535 11.25H23.2535C23.4524 11.25 23.6432 11.171 23.7838 11.0303C23.9245 10.8897 24.0035 10.6989 24.0035 10.5C24.0035 10.3011 23.9245 10.1103 23.7838 9.96967C23.6432 9.82902 23.4524 9.75 23.2535 9.75H21.7535Z" fill="black"/>
</svg>
