<svg width="45" height="48" viewBox="0 0 45 48" fill="none" xmlns="http://www.w3.org/2000/svg">
<path d="M18 0.831966C18.2928 1.1878 18.4722 1.62328 18.515 2.08213C18.5578 2.54099 18.462 3.00212 18.24 3.40597C16.5056 6.59039 15.5998 10.1598 15.606 13.786C15.606 25.849 25.44 35.617 37.56 35.617C39.141 35.617 40.68 35.452 42.159 35.137C42.6124 35.0388 43.0846 35.0763 43.5168 35.2449C43.949 35.4135 44.3219 35.7057 44.589 36.085C44.871 36.4793 45.0147 36.9558 44.9979 37.4403C44.9811 37.9248 44.8046 38.3901 44.496 38.764C42.1431 41.6543 39.1747 43.9831 35.8075 45.5805C32.4403 47.178 28.759 48.0039 25.032 47.998C11.202 47.998 0 36.856 0 23.128C0 12.796 6.342 3.93397 15.372 0.177966C15.8218 -0.0121386 16.3212 -0.0511567 16.7951 0.0667728C17.2689 0.184702 17.6918 0.453212 18 0.831966V0.831966ZM14.574 3.93097C11.1018 5.79345 8.19911 8.56189 6.17439 11.9421C4.14968 15.3222 3.0786 19.1878 3.075 23.128C3.075 35.188 12.912 44.956 25.032 44.956C27.9343 44.961 30.8088 44.3903 33.4892 43.277C36.1695 42.1637 38.6024 40.5298 40.647 38.47C39.636 38.596 38.607 38.659 37.56 38.659C23.73 38.659 12.531 27.517 12.531 13.789C12.531 10.288 13.257 6.95497 14.574 3.93097V3.93097Z" fill="#0F0F0F"/>
</svg>
