<svg width="8" height="9" viewBox="0 0 8 9" fill="none" xmlns="http://www.w3.org/2000/svg">
<path d="M3.90309 0.097929L7.23642 3.43126C7.29901 3.49385 7.33418 3.57875 7.33418 3.66726C7.33418 3.75578 7.29901 3.84067 7.23642 3.90326C7.17383 3.96585 7.08894 4.00102 7.00042 4.00102C6.9119 4.00102 6.82701 3.96585 6.76442 3.90326L4.00042 1.1386V8.33393C4.00042 8.42233 3.9653 8.50712 3.90279 8.56963C3.84028 8.63214 3.75549 8.66726 3.66709 8.66726C3.57868 8.66726 3.4939 8.63214 3.43139 8.56963C3.36887 8.50712 3.33375 8.42233 3.33375 8.33393V1.1386L0.569755 3.90326C0.507164 3.96585 0.422272 4.00102 0.333755 4.00102C0.245237 4.00102 0.160346 3.96585 0.0977545 3.90326C0.0351634 3.84067 6.59504e-10 3.75578 0 3.66726C-6.59504e-10 3.57875 0.0351634 3.49385 0.0977545 3.43126L3.43109 0.097929C3.46205 0.0668868 3.49884 0.0422582 3.53933 0.0254539C3.57983 0.00864959 3.62324 0 3.66709 0C3.71093 0 3.75435 0.00864959 3.79484 0.0254539C3.83534 0.0422582 3.87212 0.0668868 3.90309 0.097929Z" fill="#0F0F0F"/>
</svg>
